HIERARCHY
ROOT joint_0
{
	OFFSET 0.000000 0.000000 0.000000
	CHANNELS 6 Xposition Yposition Zposition Zrotation Yrotation Xrotation 
	JOINT joint_1
	{
		OFFSET 0.511002 1.944000 108.288940
		CHANNELS 3 Zrotation Yrotation Xrotation
		JOINT joint_2
		{
			OFFSET -9.074005 1.512993 98.440063
			CHANNELS 3 Zrotation Yrotation Xrotation
			JOINT joint_3
			{
				OFFSET -8.590996 1.815002 98.366943
				CHANNELS 3 Zrotation Yrotation Xrotation
				JOINT joint_4
				{
					OFFSET 2.489998 3.531998 136.462036
					CHANNELS 3 Zrotation Yrotation Xrotation
					JOINT joint_5
					{
						OFFSET 22.708000 2.955002 80.357056
						CHANNELS 3 Zrotation Yrotation Xrotation
						End Site
						{
							OFFSET 0.000000 0.000000 0.000000
						}
					}
				}
				JOINT joint_6
				{
					OFFSET 2.860001 -27.684998 77.234009
					CHANNELS 3 Zrotation Yrotation Xrotation
					JOINT joint_7
					{
						OFFSET 5.449997 -131.244003 -18.851929
						CHANNELS 3 Zrotation Yrotation Xrotation
						JOINT joint_8
						{
							OFFSET 35.757000 -24.661995 -264.074097
							CHANNELS 3 Zrotation Yrotation Xrotation
							JOINT joint_9
							{
								OFFSET 49.392001 -1.747002 -239.960938
								CHANNELS 3 Zrotation Yrotation Xrotation
								End Site
								{
									OFFSET 0.000000 0.000000 0.000000
								}
							}
						}
					}
				}
				JOINT joint_10
				{
					OFFSET -0.127998 31.625000 75.753052
					CHANNELS 3 Zrotation Yrotation Xrotation
					JOINT joint_11
					{
						OFFSET -5.618004 131.132996 -19.557007
						CHANNELS 3 Zrotation Yrotation Xrotation
						JOINT joint_12
						{
							OFFSET 46.488998 30.127991 -261.826050
							CHANNELS 3 Zrotation Yrotation Xrotation
							JOINT joint_13
							{
								OFFSET 66.021003 0.474030 -235.934937
								CHANNELS 3 Zrotation Yrotation Xrotation
								End Site
								{
									OFFSET 0.000000 0.000000 0.000000
								}
							}
						}
					}
				}
			}
		}
	}
	JOINT joint_14
	{
		OFFSET 15.887001 -78.871004 -94.561035
		CHANNELS 3 Zrotation Yrotation Xrotation
		JOINT joint_15
		{
			OFFSET -4.133003 6.714001 -473.615967
			CHANNELS 3 Zrotation Yrotation Xrotation
			JOINT joint_16
			{
				OFFSET -19.541000 5.340000 -399.613007
				CHANNELS 3 Zrotation Yrotation Xrotation
				JOINT joint_17
				{
					OFFSET 164.317001 41.657999 -73.195000
					CHANNELS 3 Zrotation Yrotation Xrotation
					End Site
					{
						OFFSET 0.000000 0.000000 0.000000
					}
				}
			}
		}
	}
	JOINT joint_18
	{
		OFFSET 6.513000 77.960991 -96.406982
		CHANNELS 3 Zrotation Yrotation Xrotation
		JOINT joint_19
		{
			OFFSET -10.660004 -8.518997 -473.485016
			CHANNELS 3 Zrotation Yrotation Xrotation
			JOINT joint_20
			{
				OFFSET -36.967995 -11.098999 -398.260010
				CHANNELS 3 Zrotation Yrotation Xrotation
				JOINT joint_21
				{
					OFFSET 166.067997 30.363998 -74.785000
					CHANNELS 3 Zrotation Yrotation Xrotation
					End Site
					{
						OFFSET 0.000000 0.000000 0.000000
					}
				}
			}
		}
	}
}
MOTION
Frames: 6
Frame Time: 0.016667
-2682.087158 869.238464 1060.015991 3.842598 0.646058 0.337981 -1.072417 0.531675 0.732669 -1.133562 -0.121177 -0.144984 -1.109311 0.120449 0.173477 0.618472 0.261086 -2.222147 0.000000 0.000000 0.000000 3.438615 -0.478309 0.557855 -0.341479 -0.002338 -1.030827 1.556380 -7.210873 7.965594 0.000000 0.000000 0.000000 -3.339402 1.065042 -3.145856 1.027984 1.934452 1.756598 -0.457655 -5.729417 -1.659729 0.000000 0.000000 0.000000 -2.932774 -4.798867 -2.055818 -2.865642 1.868616 -0.741578 -2.839330 1.239080 -1.568521 0.000000 0.000000 0.000000 -2.371179 -4.002310 4.328685 -2.310174 0.555865 -1.264681 -2.346155 2.243978 -1.459702 0.000000 0.000000 0.000000 
-2682.352539 869.218140 1060.052002 3.775376 0.652142 0.331634 -1.070243 0.598220 0.799165 -1.137115 -0.130527 -0.163960 -1.110125 0.129941 0.188640 0.641942 0.172086 -2.293768 0.000000 0.000000 0.000000 3.490107 -0.504029 0.587549 -0.268055 -0.023101 -0.821008 1.476079 -6.590101 7.490293 0.000000 0.000000 0.000000 -3.369327 1.069317 -3.192019 0.952392 1.935525 1.774756 -0.434697 -4.975890 -1.571646 0.000000 0.000000 0.000000 -2.903912 -4.838752 -2.058454 -2.836160 1.901858 -0.721198 -2.811237 1.187544 -1.543012 0.000000 0.000000 0.000000 -2.353207 -4.022927 4.333487 -2.293282 0.572939 -1.254253 -2.328397 2.228804 -1.448952 0.000000 0.000000 0.000000 
-2682.633789 869.181763 1060.088013 3.706020 0.661176 0.326877 -1.062761 0.665547 0.861211 -1.134780 -0.137800 -0.180653 -1.105438 0.139437 0.201361 0.664467 0.079972 -2.361629 0.000000 0.000000 0.000000 3.534523 -0.497516 0.614421 -0.221037 -0.012706 -0.701115 1.418609 -6.127502 7.157083 0.000000 0.000000 0.000000 -3.402078 1.119644 -3.227309 0.898190 1.987099 1.822591 -0.440313 -4.401009 -1.589094 0.000000 0.000000 0.000000 -2.874652 -4.881346 -2.060346 -2.806343 1.931196 -0.703770 -2.782897 1.136830 -1.517597 0.000000 0.000000 0.000000 -2.334055 -4.051158 4.339425 -2.275389 0.597221 -1.248265 -2.309879 2.211570 -1.437480 0.000000 0.000000 0.000000 
-2682.942383 869.099670 1060.113037 3.641390 0.674210 0.326405 -1.049561 0.734226 0.911077 -1.125468 -0.144009 -0.195400 -1.094073 0.147549 0.212127 0.685768 -0.012343 -2.425165 0.000000 0.000000 0.000000 3.567893 -0.450695 0.643018 -0.207010 0.035293 -0.715271 1.398219 -5.871433 7.037861 0.000000 0.000000 0.000000 -3.439836 1.217182 -3.252290 0.871345 2.092490 1.920606 -0.480216 -4.039113 -1.732858 0.000000 0.000000 0.000000 -2.847409 -4.928875 -2.060396 -2.778541 1.958186 -0.694695 -2.756940 1.085770 -1.493138 0.000000 0.000000 0.000000 -2.315453 -4.092895 4.348602 -2.258211 0.634654 -1.254044 -2.292752 2.189885 -1.425803 0.000000 0.000000 0.000000 
-2683.266846 869.000610 1060.137939 3.574299 0.690029 0.327565 -1.031031 0.804662 0.955279 -1.109920 -0.150087 -0.206117 -1.077152 0.157116 0.219581 0.706122 -0.107629 -2.484986 0.000000 0.000000 0.000000 3.593937 -0.371103 0.664888 -0.216550 0.114944 -0.815761 1.403324 -5.773542 7.062997 0.000000 0.000000 0.000000 -3.481204 1.361057 -3.266118 0.866276 2.248872 2.047616 -0.547929 -3.857790 -1.979492 0.000000 0.000000 0.000000 -2.819771 -4.979032 -2.059503 -2.750412 1.981423 -0.688842 -2.730760 1.035512 -1.468781 0.000000 0.000000 0.000000 -2.295599 -4.142039 4.359243 -2.239948 0.679420 -1.264961 -2.274839 2.165370 -1.413252 0.000000 0.000000 0.000000 
-2683.601562 868.904846 1060.155029 3.506519 0.706847 0.327845 -1.009221 0.883147 0.987366 -1.089503 -0.158423 -0.213024 -1.056097 0.170431 0.223756 0.723428 -0.200613 -2.534229 0.000000 0.000000 0.000000 3.598171 -0.307050 0.692221 -0.232449 0.174949 -0.955444 1.410840 -5.708251 7.102289 0.000000 0.000000 0.000000 -3.529372 1.507838 -3.276485 0.865622 2.409091 2.159733 -0.605184 -3.704912 -2.188481 0.000000 0.000000 0.000000 -2.792986 -5.027092 -2.058350 -2.723343 1.995664 -0.681051 -2.705174 0.993782 -1.446846 0.000000 0.000000 0.000000 -2.275083 -4.192652 4.369984 -2.221087 0.723486 -1.274941 -2.256309 2.143409 -1.400895 0.000000 0.000000 0.000000 
